# xmcd
#
# Track frame offsets: 
#        150
#        14638
#        32766
#        48000
#        63511
#        79571
#        100883
#        117332
#        132286
#        149404
#
# Disc length: 2196 seconds
#
# Revision: 1
# Processed by: cddbd v1.5.2PL0 Copyright (c) Steve Scherf et al.
# Submitted via: ExactAudioCopy v1.1
#
DISCID=8408920a
DTITLE=Lonestar - Party Heard Around The World
DYEAR=2010
DGENRE=Country
TTITLE0=Beat (I Can Feel Your Heart)
TTITLE1=Live, Laugh And Love 
TTITLE2=She Wants What She Wants 
TTITLE3=You're The Reason Why 
TTITLE4=Y.O.U.
TTITLE5=Making Memories 
TTITLE6=The Future 
TTITLE7=Goodbye Is Goodbye  
TTITLE8=Let Me Love You 
TTITLE9=Party Heard Around The World
EXTD=YEAR: 2010
EXTT0=
EXTT1=
EXTT2=
EXTT3=
EXTT4=
EXTT5=
EXTT6=
EXTT7=
EXTT8=
EXTT9=
PLAYORDER=
